<svg xmlns="http://www.w3.org/2000/svg" viewBox="0 0 300 420" width="100%">
  <defs>
    <style>
      .bg { fill: #0d1117; }
      .block-i { fill: #00f0f0; stroke: #0d1117; stroke-width: 2; }
      .block-o { fill: #f0f000; stroke: #0d1117; stroke-width: 2; }
      .block-t { fill: #a000f0; stroke: #0d1117; stroke-width: 2; }
      .block-s { fill: #00f000; stroke: #0d1117; stroke-width: 2; }
      .block-z { fill: #f00000; stroke: #0d1117; stroke-width: 2; }
      .block-j { fill: #0000f0; stroke: #0d1117; stroke-width: 2; }
      .block-l { fill: #f0a000; stroke: #0d1117; stroke-width: 2; }
      .score { fill: #c9d1d9; font-family: 'Courier New', monospace; font-size: 14px; font-weight: bold; }
      .title { fill: #f0f6fc; font-family: 'Segoe UI', Arial, sans-serif; font-size: 16px; font-weight: 600; }
      .flash { fill: #ffffff; opacity: 0; }
      
      @keyframes fall1 { 0% { transform: translateY(-60px); } 100% { transform: translateY(300px); } }
      @keyframes fall2 { 0% { transform: translateY(-60px); } 100% { transform: translateY(240px); } }
      @keyframes fall3 { 0% { transform: translateY(-60px); } 100% { transform: translateY(180px); } }
      @keyframes fall4 { 0% { transform: translateY(-60px); } 100% { transform: translateY(360px); } }
      @keyframes flash { 0%, 100% { opacity: 0; } 50% { opacity: 0.8; } }
    </style>
  </defs>
  
  <rect class="bg" width="100%" height="100%" rx="8"/>
  
  <text x="20" y="28" class="title">🧱 Tetris</text>
  <text x="230" y="28" class="score" text-anchor="end">NEXT</text>
  
  <rect x="20" y="40" width="160" height="320" fill="#161b22" stroke="#30363d" stroke-width="2" rx="4"/>
  
  <g stroke="#21262d" stroke-width="1">
    <line x1="20" y1="80" x2="180" y2="80"/>
    <line x1="20" y1="120" x2="180" y2="120"/>
    <line x1="20" y1="160" x2="180" y2="160"/>
    <line x1="20" y1="200" x2="180" y2="200"/>
    <line x1="20" y1="240" x2="180" y2="240"/>
    <line x1="20" y1="280" x2="180" y2="280"/>
    <line x1="20" y1="320" x2="180" y2="320"/>
    <line x1="60" y1="40" x2="60" y2="360"/>
    <line x1="100" y1="40" x2="100" y2="360"/>
    <line x1="140" y1="40" x2="140" y2="360"/>
  </g>
  
  <g>
    <rect class="block-l" x="20" y="320" width="40" height="40"/>
    <rect class="block-o" x="60" y="320" width="40" height="40"/>
    <rect class="block-o" x="100" y="320" width="40" height="40"/>
    <rect class="block-j" x="140" y="320" width="40" height="40"/>
    
    <rect class="block-t" x="20" y="280" width="40" height="40"/>
    <rect class="block-t" x="60" y="280" width="40" height="40"/>
    <rect class="block-t" x="100" y="280" width="40" height="40"/>
    <rect class="block-j" x="140" y="280" width="40" height="40"/>
    
    <rect class="block-s" x="20" y="240" width="40" height="40"/>
    <rect class="block-s" x="60" y="240" width="40" height="40"/>
    <rect class="block-z" x="100" y="240" width="40" height="40"/>
    <rect class="block-z" x="140" y="240" width="40" height="40"/>
    
    <rect class="block-i" x="20" y="200" width="40" height="40"/>
    <rect class="block-i" x="60" y="200" width="40" height="40"/>
    <rect class="block-i" x="100" y="200" width="40" height="40"/>
    <rect class="block-i" x="140" y="200" width="40" height="40"/>
  </g>
  
  <rect class="flash" x="20" y="200" width="160" height="40" style="animation: flash 2s infinite;">
    <animate attributeName="y" values="200;200;240;240;280;280" dur="8s" repeatCount="indefinite"/>
  </rect>
  
  <g style="animation: fall1 3s linear infinite;">
    <rect class="block-i" x="60" y="40" width="40" height="40"/>
    <rect class="block-i" x="60" y="80" width="40" height="40"/>
    <rect class="block-i" x="60" y="120" width="40" height="40"/>
    <rect class="block-i" x="60" y="160" width="40" height="40"/>
  </g>
  
  <g style="animation: fall2 4s linear infinite; animation-delay: 1s;">
    <rect class="block-t" x="60" y="40" width="40" height="40"/>
    <rect class="block-t" x="20" y="80" width="40" height="40"/>
    <rect class="block-t" x="60" y="80" width="40" height="40"/>
    <rect class="block-t" x="100" y="80" width="40" height="40"/>
  </g>
  
  <g style="animation: fall3 3.5s linear infinite; animation-delay: 2s;">
    <rect class="block-z" x="60" y="40" width="40" height="40"/>
    <rect class="block-z" x="100" y="40" width="40" height="40"/>
    <rect class="block-z" x="20" y="80" width="40" height="40"/>
    <rect class="block-z" x="60" y="80" width="40" height="40"/>
  </g>
  
  <g style="animation: fall4 2.5s linear infinite; animation-delay: 0.5s;">
    <rect class="block-o" x="100" y="40" width="40" height="40"/>
    <rect class="block-o" x="140" y="40" width="40" height="40"/>
    <rect class="block-o" x="100" y="80" width="40" height="40"/>
    <rect class="block-o" x="140" y="80" width="40" height="40"/>
  </g>
  
  <rect x="200" y="40" width="80" height="80" fill="#161b22" stroke="#30363d" stroke-width="2" rx="4"/>
  <g transform="translate(220, 60)">
    <rect class="block-s" x="0" y="0" width="20" height="20"/>
    <rect class="block-s" x="20" y="0" width="20" height="20"/>
    <rect class="block-s" x="20" y="20" width="20" height="20"/>
    <rect class="block-s" x="40" y="20" width="20" height="20"/>
  </g>
  
  <text x="200" y="140" class="score">SCORE</text>
  <text x="200" y="160" class="score" fill="#58a6ff">12,800</text>
  
  <text x="200" y="190" class="score">LINES</text>
  <text x="200" y="210" class="score" fill="#3fb950">42</text>
  
  <text x="200" y="240" class="score">LEVEL</text>
  <text x="200" y="260" class="score" fill="#f0883e">5</text>
  
  <rect x="200" y="280" width="80" height="6" fill="#21262d" rx="3"/>
  <rect x="200" y="280" width="60" height="6" fill="#f0883e" rx="3">
    <animate attributeName="width" values="0;60;60;0" dur="8s" repeatCount="indefinite"/>
  </rect>
  
  <text x="150" y="390" class="score" text-anchor="middle" fill="#484f58" font-size="10">←↓→ MOVE | ↑ ROTATE</text>
</svg>
